<svg xmlns="http://www.w3.org/2000/svg" viewBox="0 0 160 46" width="160" height="46"><path d="M137.897 44.451H14.989A13.411 13.411 0 0 1 1.551 31.012V14.989A13.411 13.411 0 0 1 14.989 1.551h122.908a13.411 13.411 0 0 1 13.438 13.438v16.023a13.411 13.411 0 0 1-13.438 13.439z" fill="#425462"/><path d="M137.9 46H14.989A15 15 0 0 1 0 31.011V14.989A15 15 0 0 1 14.989 0H137.9a15 15 0 0 1 14.989 14.989v16.022A15 15 0 0 1 137.9 46zM14.989 3.1A11.889 11.889 0 0 0 3.1 14.989v16.022A11.889 11.889 0 0 0 14.989 42.9H137.9a11.889 11.889 0 0 0 11.888-11.888V14.989A11.889 11.889 0 0 0 137.9 3.1z" fill="#768da9"/><path d="M26.463 27.031a5.268 5.268 0 0 1-1.757 1.654 4.894 4.894 0 0 1-2.378.517 5.623 5.623 0 0 1-2.067-.362 6.313 6.313 0 0 1-1.809-1.034 5.137 5.137 0 0 1-1.24-1.551 4.444 4.444 0 0 1-.465-2.016 4.83 4.83 0 0 1 .413-2.016 4.254 4.254 0 0 1 1.186-1.498 5.49 5.49 0 0 1 1.706-.93 6.907 6.907 0 0 1 2.067-.31 8.578 8.578 0 0 1 1.24.1 3.43 3.43 0 0 1 1.034.31 4.5 4.5 0 0 1 .93.569 4.4 4.4 0 0 1 .879.827 1.039 1.039 0 0 1 .207.672.93.93 0 0 1-.362.775 1.267 1.267 0 0 1-.827.31 1.3 1.3 0 0 1-.874-.363 2.589 2.589 0 0 1-.413-.362c-.155-.1-.31-.258-.465-.362a1.911 1.911 0 0 0-.569-.258 2.619 2.619 0 0 0-.672-.1 1.811 1.811 0 0 0-1.551.879 2.213 2.213 0 0 0-.31.879 6.331 6.331 0 0 0-.1.982 7 7 0 0 0 .1 1.034 2.633 2.633 0 0 0 .362.879 1.811 1.811 0 0 0 1.551.879 2.745 2.745 0 0 0 .724-.052 1.547 1.547 0 0 0 .517-.207 1.393 1.393 0 0 0 .413-.362 5.847 5.847 0 0 1 .569-.569 1.091 1.091 0 0 1 .879-.413 1.174 1.174 0 0 1 .827.31 1.1 1.1 0 0 1 .362.775zm5.168 1.861h-3.618V16.798a1.824 1.824 0 0 1 .155-.724 2.254 2.254 0 0 1 .982-.982 1.651 1.651 0 0 1 .724-.155 1.431 1.431 0 0 1 .672.155 2.254 2.254 0 0 1 .982.982 1.651 1.651 0 0 1 .155.724v12.094zm4.6-.155a5.442 5.442 0 0 1-1.757-1.034 5.346 5.346 0 0 1-1.24-1.6 4.444 4.444 0 0 1-.465-2.016 4.663 4.663 0 0 1 .465-2.067 4.578 4.578 0 0 1 1.24-1.551 6.565 6.565 0 0 1 1.757-1.034 5.623 5.623 0 0 1 2.067-.363 5.8 5.8 0 0 1 3.825 1.4 5.137 5.137 0 0 1 1.245 1.546 4.507 4.507 0 0 1 .465 2.067 4.444 4.444 0 0 1-.465 2.016 5.345 5.345 0 0 1-1.24 1.6 5.442 5.442 0 0 1-1.76 1.036 4.693 4.693 0 0 1-2.067.31 4.806 4.806 0 0 1-2.07-.31zm.724-6.978a4.633 4.633 0 0 0-.517 2.378 4.39 4.39 0 0 0 .517 2.378 1.552 1.552 0 0 0 2.688 0 4.633 4.633 0 0 0 .517-2.378 6.692 6.692 0 0 0-.155-1.6 3.5 3.5 0 0 0-.413-.982.922.922 0 0 0-.62-.465 1.527 1.527 0 0 0-.672-.1 1.368 1.368 0 0 0-1.345.77zm15.144 6.462a4.311 4.311 0 0 1-.62.414 3.161 3.161 0 0 1-.62.258 2.275 2.275 0 0 1-.517.1 2.914 2.914 0 0 0-.362.052 7.642 7.642 0 0 1-2.016-.258 4.23 4.23 0 0 1-1.447-.724 4.7 4.7 0 0 1-.931-1.084 5.684 5.684 0 0 1-.465-1.5v-5.011a1.042 1.042 0 0 1 .155-.569 1.393 1.393 0 0 1 .413-.362 1.852 1.852 0 0 1 .569-.207 3.747 3.747 0 0 1 1.24 0 1.851 1.851 0 0 1 .569.207 1.394 1.394 0 0 1 .413.362 1.042 1.042 0 0 1 .155.569v3.411a13.574 13.574 0 0 0 .052 1.551 3.821 3.821 0 0 0 .258.982 1.375 1.375 0 0 0 .517.569 1.947 1.947 0 0 0 .827.207h.258a1.508 1.508 0 0 0 .465-.1 5.028 5.028 0 0 0 .569-.258 1.014 1.014 0 0 0 .465-.465v-7.034h3.618v9.562h-3.617v-.672zm12.198-13.284h3.67v12.715a1.028 1.028 0 0 1-.362.827 1.1 1.1 0 0 1-.827.362h-5.062a6.008 6.008 0 0 1-2.067-.31 3.23 3.23 0 0 1-1.4-.879 3.07 3.07 0 0 1-.775-1.4 7.533 7.533 0 0 1-.258-1.964 4.84 4.84 0 0 1 .413-2.274 3.669 3.669 0 0 1 1.189-1.447 4.261 4.261 0 0 1 1.861-.724 8.53 8.53 0 0 1 2.326-.155h1.292zm-3.256 9.458a7.712 7.712 0 0 0 .1 1.085 3.119 3.119 0 0 0 .31.982 1.936 1.936 0 0 0 .62.672 2.036 2.036 0 0 0 1.034.258h1.189v-5.891h-1.4a1.712 1.712 0 0 0-.982.258 1.8 1.8 0 0 0-.569.672 4.007 4.007 0 0 0-.258.93 7.276 7.276 0 0 1-.052 1.034z" fill="#fff"/><path d="M69.62 27.755a.664.664 0 0 1-.207-.517 1 1 0 0 1 .155-.517.958.958 0 0 1 .413-.362 1 1 0 0 1 .517-.155.836.836 0 0 1 .517.207 3.944 3.944 0 0 1 .569.414c.207.155.413.258.62.413a1.272 1.272 0 0 0 .569.207c.724 0 1.085-.258 1.085-.827a.527.527 0 0 0-.258-.413 2.133 2.133 0 0 0-.569-.362c-.207-.1-.465-.207-.672-.31a4.339 4.339 0 0 0-.62-.207c-1.551-.62-2.326-1.5-2.326-2.688a3.077 3.077 0 0 1 .31-1.4 2.556 2.556 0 0 1 .827-.982 4.321 4.321 0 0 1 1.189-.62 4.459 4.459 0 0 1 1.447-.207 4.95 4.95 0 0 1 1.137.155 8.034 8.034 0 0 1 1.189.413 4.165 4.165 0 0 1 .93.62 1.077 1.077 0 0 1 .362.775.737.737 0 0 1-.31.62 1.039 1.039 0 0 1-.672.207.631.631 0 0 1-.465-.207 3.62 3.62 0 0 1-.517-.413 4.311 4.311 0 0 0-.62-.414 1.592 1.592 0 0 0-.672-.155c-.672 0-.982.31-.982.879a.47.47 0 0 0 .207.413 4.545 4.545 0 0 0 .517.31 3.587 3.587 0 0 0 .672.258c.258.1.465.155.672.258 1.6.62 2.429 1.5 2.429 2.739a3.078 3.078 0 0 1-.31 1.4 2.685 2.685 0 0 1-.879.982 4.645 4.645 0 0 1-1.24.62 4.45 4.45 0 0 1-1.447.155 4.4 4.4 0 0 1-3.567-1.289zm12.457 6.202h-3.67V20.416a1.028 1.028 0 0 1 .362-.827 1.1 1.1 0 0 1 .827-.362h5.011a6.007 6.007 0 0 1 2.067.31 3.794 3.794 0 0 1 1.4.879 3.364 3.364 0 0 1 .775 1.4 7.129 7.129 0 0 1 .258 1.911 4.869 4.869 0 0 1-.465 2.222 4.209 4.209 0 0 1-1.24 1.447 5.052 5.052 0 0 1-1.861.775 10.461 10.461 0 0 1-2.223.258h-1.292v5.53zm3.256-11.371a3.114 3.114 0 0 0-.31-.982 1.68 1.68 0 0 0-.672-.672 2.244 2.244 0 0 0-1.085-.258h-1.189v5.84h1.4a2.036 2.036 0 0 0 1.034-.258 1.936 1.936 0 0 0 .62-.672 2.459 2.459 0 0 0 .258-.93 6.922 6.922 0 0 0 .052-1.034 3.69 3.69 0 0 0-.108-1.033zm8.269 6.151a5.441 5.441 0 0 1-1.757-1.034 5.346 5.346 0 0 1-1.24-1.6 4.444 4.444 0 0 1-.465-2.016 4.662 4.662 0 0 1 .465-2.067 4.577 4.577 0 0 1 1.24-1.551 6.563 6.563 0 0 1 1.757-1.034 6.088 6.088 0 0 1 4.135 0 5.441 5.441 0 0 1 1.757 1.034 5.135 5.135 0 0 1 1.245 1.549 4.506 4.506 0 0 1 .465 2.067 4.444 4.444 0 0 1-.465 2.016 5.342 5.342 0 0 1-1.24 1.6 5.441 5.441 0 0 1-1.76 1.036 7.046 7.046 0 0 1-4.135 0zm.724-6.978a4.633 4.633 0 0 0-.517 2.378 4.39 4.39 0 0 0 .517 2.378 1.552 1.552 0 0 0 2.688 0 4.635 4.635 0 0 0 .517-2.378 6.694 6.694 0 0 0-.155-1.6 3.5 3.5 0 0 0-.413-.982.922.922 0 0 0-.62-.465 1.526 1.526 0 0 0-.672-.1 1.327 1.327 0 0 0-1.346.77zm11.68-1.757a2.3 2.3 0 0 1 .569-.414 3.161 3.161 0 0 1 .62-.258 2.274 2.274 0 0 1 .517-.1 2.919 2.919 0 0 0 .362-.052 5.9 5.9 0 0 1 2.016.31 4.229 4.229 0 0 1 1.447.724 4.7 4.7 0 0 1 .93 1.085 5.686 5.686 0 0 1 .465 1.5.19.19 0 0 0 .052.155v4.803a1.042 1.042 0 0 1-.155.569 1.392 1.392 0 0 1-.413.362 1.85 1.85 0 0 1-.569.207 3.747 3.747 0 0 1-1.24 0 1.851 1.851 0 0 1-.569-.207 1.393 1.393 0 0 1-.413-.362 1.041 1.041 0 0 1-.155-.569v-3.463a13.574 13.574 0 0 0-.052-1.551 3.823 3.823 0 0 0-.258-.982 1.375 1.375 0 0 0-.517-.569 1.948 1.948 0 0 0-.827-.207h-.258a1.508 1.508 0 0 0-.465.1 5.041 5.041 0 0 0-.569.258 1.014 1.014 0 0 0-.465.465v6.978h-3.619V19.33h3.618v.672zm19.279 9.042c0 1.757-.362 3.049-1.137 3.773a5.4 5.4 0 0 1-3.773 1.085h-4.44v-1.758h4.6a.824.824 0 0 0 .62-.207 1.086 1.086 0 0 0 .362-.569 3.2 3.2 0 0 0 .1-1.085v-1.4h-3.1a4.447 4.447 0 0 1-1.964-.362 3.038 3.038 0 0 1-1.24-1.034 3.548 3.548 0 0 1-.62-1.5 9.671 9.671 0 0 1-.158-1.743 7.13 7.13 0 0 1 .258-1.912 3.07 3.07 0 0 1 .775-1.4 3.794 3.794 0 0 1 1.4-.879 6.007 6.007 0 0 1 2.067-.31h5.065a1.028 1.028 0 0 1 .827.362 1.1 1.1 0 0 1 .362.827zm-3.67-7.856h-1.189a2.253 2.253 0 0 0-1.551.517 1 1 0 0 0-.258.465 3.158 3.158 0 0 0-.155.672c-.052.258-.052.517-.1.724 0 .258-.052.465-.052.62v.569a3.489 3.489 0 0 0 .1.724c.052.258.1.517.155.724a.989.989 0 0 0 .207.413.927.927 0 0 0 .362.258 2.4 2.4 0 0 0 .465.155 2.957 2.957 0 0 0 .724.052h1.189v-5.89zm9.459 5.223a2.138 2.138 0 0 0 1.4.569 3.02 3.02 0 0 0 1.086-.155 1.859 1.859 0 0 0 .62-.413 3.349 3.349 0 0 1 .465-.413.877.877 0 0 1 .672-.207 1.268 1.268 0 0 1 .827.31 1.1 1.1 0 0 1 .362.775 1.184 1.184 0 0 1-.362.827 3.386 3.386 0 0 1-.93.775 5.261 5.261 0 0 1-1.344.569 4.895 4.895 0 0 1-1.447.207 7.806 7.806 0 0 1-2.274-.31 5.21 5.21 0 0 1-1.757-.93 3.789 3.789 0 0 1-1.137-1.551 6.72 6.72 0 0 1-.465-2.171 4.141 4.141 0 0 1 .414-2.016 4.253 4.253 0 0 1 1.189-1.5 5.209 5.209 0 0 1 1.757-.93 6.907 6.907 0 0 1 2.067-.31 5.531 5.531 0 0 1 2.119.362 4.971 4.971 0 0 1 1.648 1.038 4.718 4.718 0 0 1 1.034 1.706 6.408 6.408 0 0 1 .259 2.274l-.052.1h-6.667a1.754 1.754 0 0 0 .516 1.394zm3.1-4.083a1.671 1.671 0 0 0-.413-.465 2.277 2.277 0 0 0-1.344-.362 1.773 1.773 0 0 0-1.809 1.5h3.776a3.526 3.526 0 0 0-.209-.673z" fill="#afe261"/></svg>